<?xml version="1.0"?>
<svg xmlns="http://www.w3.org/2000/svg" viewBox="0 0 64 64" width="512" height="512"><g id="outline"><path d="M13,47a4,4,0,1,0,4,4A4,4,0,0,0,13,47Zm0,6a2,2,0,1,1,2-2A2,2,0,0,1,13,53Z"/><path d="M29,54h6a3,3,0,0,0,0-6H29a3,3,0,0,0,0,6Zm0-4h6a1,1,0,0,1,0,2H29a1,1,0,0,1,0-2Z"/><path d="M51,55a4,4,0,1,0-4-4A4,4,0,0,0,51,55Zm0-6a2,2,0,1,1-2,2A2,2,0,0,1,51,49Z"/><rect x="27" y="15" width="2" height="2"/><rect x="30" y="28" width="2" height="2"/><rect x="26" y="40" width="2" height="2"/><rect x="36" y="40" width="2" height="2"/><path d="M61,16H50a1,1,0,0,0-.707.293L47.586,18H45V15a2,2,0,0,1,2-2h3a1,1,0,0,0,1-1V8a1,1,0,0,0-1-1H42.677l-2-5H25.323l-2,5H20a1,1,0,0,0-.929.629L17.323,12H15a1,1,0,0,0-.961.726l-2,7a1,1,0,0,0,.336,1.055L17,24.48V27a1,1,0,0,1-1,1H14a3,3,0,0,0,0,6H24v2H22v8h-.521a11,11,0,1,0,0,14H42.521a11,11,0,1,0,0-14H42V36H40V32H37.748l-1.47-5H44a1,1,0,0,0,1-1V24h2.586l1.707,1.707A1,1,0,0,0,50,26H61a1,1,0,0,0,1-1V17A1,1,0,0,0,61,16ZM21.941,52a8.956,8.956,0,0,1-1.916,4.611l-2.318-2.318-1.414,1.414,2.318,2.318A8.956,8.956,0,0,1,14,59.941V57H12v2.941a8.956,8.956,0,0,1-4.611-1.916l2.318-2.318L8.293,54.293,5.975,56.611A8.956,8.956,0,0,1,4.059,52H7V50H4.059a8.956,8.956,0,0,1,1.916-4.611l2.318,2.318,1.414-1.414L7.389,43.975A8.956,8.956,0,0,1,12,42.059V45h2V42.059a8.956,8.956,0,0,1,4.611,1.916l-2.318,2.318,1.414,1.414,2.318-2.318A8.956,8.956,0,0,1,21.941,50H19v2Zm20.118-2a8.956,8.956,0,0,1,1.916-4.611l2.318,2.318,1.414-1.414-2.318-2.318A8.956,8.956,0,0,1,50,42.059V45h2V42.059a8.956,8.956,0,0,1,4.611,1.916l-2.318,2.318,1.414,1.414,2.318-2.318A8.956,8.956,0,0,1,59.941,50H57v2h2.941a8.956,8.956,0,0,1-1.916,4.611l-2.318-2.318-1.414,1.414,2.318,2.318A8.956,8.956,0,0,1,52,59.941V57H50v2.941a8.956,8.956,0,0,1-4.611-1.916l2.318-2.318-1.414-1.414-2.318,2.318A8.956,8.956,0,0,1,42.059,52H45V50ZM26.677,4H39.323l1.2,3H25.477ZM15.754,14h1.711l1.7,2.555A1,1,0,0,0,20,17h2.252l.588,2H14.326Zm.1,7h7.577l1.177,4H19V24a1,1,0,0,0-.375-.781Zm15.19-4.718L35.664,32H28.748L24.07,16.1,25.618,13h6.764l-1.277,2.553A1,1,0,0,0,31.041,16.282ZM14,32a1,1,0,0,1,0-2h2a3,3,0,0,0,3-3h6.193l1.47,5ZM41.214,46a10.9,10.9,0,0,0,0,10H22.786a10.9,10.9,0,0,0,0-10ZM40,44H24V38H40ZM38,34v2H26V34Zm5-11v2H35.689l-1.176-4H43Zm0-4H33.925l-.589-2H43Zm0-4H33.618L34.9,12.447A1,1,0,0,0,34,11H25a1,1,0,0,0-.895.553L22.382,15H20.535l-1.411-2.117L20.677,9H49v2H47A4,4,0,0,0,43,15Zm4,7H45V20h2Zm9,2H50.414L49,22.586V19.414L50.414,18H56Zm4,0H58V18h2Z"/></g></svg>
