<?xml version="1.0"?>
<svg xmlns="http://www.w3.org/2000/svg" data-name="Layer 1" id="Layer_1" viewBox="0 0 128 128"><title/><path d="M71,50V41.58313a18,18,0,1,0-14,0V50h4V42.729a16.7409,16.7409,0,0,0,6,0V50ZM64,39A13.991,13.991,0,0,1,50.15906,27H51a2,2,0,0,0,0-4h-.84094a13.90631,13.90631,0,0,1,2.63983-6.373l.59467.59467a1.99979,1.99979,0,0,0,2.82813-2.82812l-.59467-.59467A13.90631,13.90631,0,0,1,62,11.15906V12a2,2,0,0,0,4,0v-.84094a13.90631,13.90631,0,0,1,6.373,2.63983l-.59467.59467a1.99979,1.99979,0,1,0,2.82813,2.82812l.59467-.59467A13.90631,13.90631,0,0,1,77.84094,23H77a2,2,0,0,0,0,4h.84094A13.991,13.991,0,0,1,64,39Z"/><path d="M123,86h-1V75a17.019,17.019,0,0,0-17-17H95v4h10a13.01474,13.01474,0,0,1,13,13V86H104V82a6.00656,6.00656,0,0,0-6-6H95v4h3a2.00229,2.00229,0,0,1,2,2v4H99a5.00589,5.00589,0,0,0-5,5v6a5.00589,5.00589,0,0,0,5,5h1v10H99a5.00589,5.00589,0,0,0-5,5v6a5.00589,5.00589,0,0,0,5,5h24a5.00589,5.00589,0,0,0,5-5v-6a5.00589,5.00589,0,0,0-5-5h-1V102h1a5.00589,5.00589,0,0,0,5-5V91A5.00589,5.00589,0,0,0,123,86Zm0,30a1.001,1.001,0,0,1,1,1v6a1.001,1.001,0,0,1-1,1H99a1.001,1.001,0,0,1-1-1v-6a1.001,1.001,0,0,1,1-1h24Zm-19-4V102h14v10Zm20-15a1.001,1.001,0,0,1-1,1H99a1.001,1.001,0,0,1-1-1V91a1.001,1.001,0,0,1,1-1h24a1.001,1.001,0,0,1,1,1Z"/><path d="M5,42H6V63A17.019,17.019,0,0,0,23,80H33V76H23A13.01474,13.01474,0,0,1,10,63V42H24V56a6.00656,6.00656,0,0,0,6,6h3V58H30a2.00229,2.00229,0,0,1-2-2V42h1a5.00589,5.00589,0,0,0,5-5V31a5.00589,5.00589,0,0,0-5-5H28V16h1a5.00589,5.00589,0,0,0,5-5V5a5.00589,5.00589,0,0,0-5-5H5A5.00589,5.00589,0,0,0,0,5v6a5.00589,5.00589,0,0,0,5,5H6V26H5a5.00589,5.00589,0,0,0-5,5v6A5.00589,5.00589,0,0,0,5,42ZM5,12a1.001,1.001,0,0,1-1-1V5A1.001,1.001,0,0,1,5,4H29a1.001,1.001,0,0,1,1,1v6a1.001,1.001,0,0,1-1,1Zm19,4V26H10V16ZM4,31a1.001,1.001,0,0,1,1-1H29a1.001,1.001,0,0,1,1,1v6a1.001,1.001,0,0,1-1,1H5a1.001,1.001,0,0,1-1-1Z"/><path d="M4,126h6a5.00589,5.00589,0,0,0,5-5v-1H58a17.019,17.019,0,0,0,17-17V84h2.142A3.99577,3.99577,0,0,0,81,87h6a4.00427,4.00427,0,0,0,4-4V55a4.00427,4.00427,0,0,0-4-4H81a3.99577,3.99577,0,0,0-3.858,3H50.858A3.99577,3.99577,0,0,0,47,51H41a4.00427,4.00427,0,0,0-4,4V83a4.00427,4.00427,0,0,0,4,4h6a3.99577,3.99577,0,0,0,3.858-3H53V96a2.00229,2.00229,0,0,1-2,2H15V97a5.00589,5.00589,0,0,0-5-5H4a5.00589,5.00589,0,0,0-5,5v24A5.00589,5.00589,0,0,0,4,126ZM81,55h6l.00293,28H81ZM41,83V55h6l.00293,28Zm10-3V58H77V80ZM15,102H51a6.00656,6.00656,0,0,0,6-6V84H71v19a13.01474,13.01474,0,0,1-13,13H15ZM3,97a1.001,1.001,0,0,1,1-1h6a1.001,1.001,0,0,1,1,1v24a1.001,1.001,0,0,1-1,1H4a1.001,1.001,0,0,1-1-1Z"/><path d="M64,62c-4.486,0-8,3.07477-8,7s3.514,7,8,7,8-3.07477,8-7S68.486,62,64,62Zm0,10c-2.20911,0-4-1.34314-4-3s1.79089-3,4-3,4,1.34314,4,3S66.20917,72,64,72Z"/></svg>
