<svg id="Layer_1" enable-background="new 0 0 64 64" height="512" viewBox="0 0 64 64" width="512" xmlns="http://www.w3.org/2000/svg"><g><path d="m62.033 23h-1.153l-.861-5.164c-.08-.482-.497-.836-.986-.836v-2c0-.553-.447-1-1-1s-1 .447-1 1v2c-.489 0-.906.354-.986.836l-.861 5.164h-1.153c-.553 0-1 .447-1 1s.447 1 1 1v21c0 .553.447 1 1 1v1c0 1.302.839 2.402 2 2.816v3.184c0 .552-.448 1-1 1h-19v-4h7c.801 0 1.555-.312 2.12-.878.567-.565.88-1.319.88-2.122v-1.194c1.163-.426 2-1.534 2-2.842v-.964c.553 0 1-.447 1-1v-21c.553 0 1-.447 1-1s-.447-1-1-1h-1.153l-.861-5.164c-.08-.482-.497-.836-.986-.836v-2c0-.553-.447-1-1-1s-1 .447-1 1v2c-.489 0-.906.354-.986.836l-.861 5.164h-1.153c-.553 0-1 .447-1 1s.447 1 1 1v21c0 .553.447 1 1 1v1.038c0 .791.309 1.535.868 2.095.323.323.712.551 1.132.695v1.172c0 .268-.104.519-.293.707s-.44.293-.707.293h-7v-11c0-.553-.447-1-1-1s-1 .447-1 1v19c0 2.757-2.243 5-5 5h-22.066c-2.757 0-5-2.243-5-5v-50c0-2.757 2.243-5 5-5h22.066c2.757 0 5 2.243 5 5v25c0 .553.447 1 1 1s1-.447 1-1v-25c0-3.859-3.141-7-7-7h-22.066c-3.859 0-7 3.141-7 7v50c0 3.859 3.141 7 7 7h22.066c3.859 0 7-3.141 7-7h19c1.654 0 3-1.346 3-3v-3.184c1.161-.414 2-1.514 2-2.816v-1c.553 0 1-.447 1-1v-21c.553 0 1-.447 1-1s-.447-1-1-1zm-16.153-8h.307l.666 4h-1.64zm2.153 6v20h-4v-20zm-1 22v.964c0 .571-.466 1.036-1.038 1.036-.253 0-.501-.103-.68-.281-.182-.182-.282-.424-.282-.681v-1.038zm10.847-24h.307l.666 4h-1.64zm1.153 29c0 .552-.448 1-1 1s-1-.448-1-1v-1h2zm1-3h-4v-20h4z"/><path d="m17.033 15c-.553 0-1 .447-1 1s.447 1 1 1h14c.553 0 1-.447 1-1v-10c0-.553-.447-1-1-1h-24c-.553 0-1 .447-1 1v10c0 .553.447 1 1 1h4c.553 0 1-.447 1-1s-.447-1-1-1h-3v-8h22v8z"/><circle cx="14.033" cy="16" r="1"/><path d="m30.033 35c0-6.065-4.935-11-11-11s-11 4.935-11 11c0 2.954 1.177 5.635 3.079 7.613.037.055.061.116.11.165.045.045.102.067.153.102 1.982 1.927 4.682 3.12 7.659 3.12 6.065 0 10.999-4.935 10.999-11zm-11-9c2.113 0 4.055.737 5.592 1.961l-12.631 12.631c-1.224-1.537-1.961-3.479-1.961-5.592 0-4.963 4.037-9 9-9zm0 18c-2.13 0-4.087-.747-5.63-1.989l12.641-12.641c1.242 1.543 1.989 3.5 1.989 5.63 0 4.963-4.037 9-9 9z"/><path d="m15.967 55c0 1.673 1.36 3.033 3.033 3.033s3.033-1.36 3.033-3.033-1.36-3.033-3.033-3.033-3.033 1.36-3.033 3.033zm4.066 0c0 .569-.464 1.033-1.033 1.033s-1.033-.464-1.033-1.033.464-1.033 1.033-1.033 1.033.464 1.033 1.033z"/><path d="m29.033 58.033c1.673 0 3.033-1.36 3.033-3.033s-1.36-3.033-3.033-3.033-3.033 1.36-3.033 3.033 1.36 3.033 3.033 3.033zm0-4.066c.569 0 1.033.464 1.033 1.033s-.464 1.033-1.033 1.033-1.033-.464-1.033-1.033.464-1.033 1.033-1.033z"/><path d="m9.033 58.033c1.673 0 3.033-1.36 3.033-3.033s-1.36-3.033-3.033-3.033-3.033 1.36-3.033 3.033 1.36 3.033 3.033 3.033zm0-4.066c.569 0 1.033.464 1.033 1.033s-.464 1.033-1.033 1.033-1.033-.464-1.033-1.033.464-1.033 1.033-1.033z"/><circle cx="36.033" cy="35" r="1"/></g></svg>