<svg id="Layer_1" enable-background="new 0 0 500 500" viewBox="0 0 500 500" xmlns="http://www.w3.org/2000/svg"><path clip-rule="evenodd" d="m239.562 113.308c-3.767 0-6.808 3.052-6.808 6.813v8.265c0 3.761 3.041 6.813 6.808 6.813 3.761 0 6.814-3.052 6.814-6.813v-8.265c-.001-3.761-3.053-6.813-6.814-6.813zm27.945 21.892c3.767 0 6.813-3.052 6.813-6.813v-8.265c0-3.761-3.047-6.813-6.813-6.813-3.761 0-6.813 3.052-6.813 6.813v8.265c-.001 3.76 3.052 6.813 6.813 6.813zm0-29.694c3.767 0 6.813-3.052 6.813-6.813v-8.26c0-3.761-3.047-6.813-6.813-6.813-3.761 0-6.813 3.052-6.813 6.813v8.26c-.001 3.761 3.052 6.813 6.813 6.813zm-1.143 148.847c-.069-.029-.12-.057-.183-.086-8.52-3.952-14.273-1.826-19.068-4.224-8.678-4.34-1.388-10.538 6.487-10.454 5.384.188 9.98 1.343 14.044 3.544 3.304 1.789 7.436.554 9.225-2.755 1.789-3.304.566-7.442-2.749-9.225-4.224-2.292-8.785-3.801-13.775-4.584v-1.612c0-3.772-3.046-6.813-6.808-6.813-3.761 0-6.813 3.041-6.813 6.813v1.823c-20.569 4.829-22.852 27.32-5.596 35.501 8.363 3.965 14.122 1.799 19.136 4.258 8.18 4.011 1.956 10.44-6.596 10.437-5.139-.063-9.86-1.246-14.444-3.607-3.332-1.726-7.442-.417-9.174 2.926-1.732 3.332-.423 7.448 2.921 9.174 4.378 2.264 8.98 3.767 13.752 4.533v1.606c0 3.761 3.052 6.814 6.813 6.814s6.808-3.052 6.808-6.814v-1.777c20.102-4.636 23.726-26.45 6.02-35.478zm194.824-29.5-50.185-46.178-50.18 46.178v78.867h23.098v-44.886c0-5.984 4.87-10.843 10.849-10.843h32.466c5.973 0 10.843 4.859 10.843 10.843v44.886h23.109zm-36.735 36.764v42.103h-26.904v-42.103zm-123.571-16.616c-1.395 1.543-2.001 3.624-1.663 5.67.83 5.017.832 10.199 0 15.216-.337 2.041.269 4.121 1.663 5.664l9.22 10.237-7.922 13.718-13.484-2.858c-2.029-.44-4.15.08-5.745 1.395-3.955 3.264-8.379 5.824-13.158 7.613-1.943.726-3.441 2.298-4.087 4.27l-4.252 13.089h-15.839l-4.252-13.089c-.646-1.972-2.144-3.544-4.087-4.275-4.767-1.795-9.191-4.344-13.152-7.608-1.601-1.315-3.715-1.835-5.739-1.406l-13.495 2.869-7.922-13.718 9.225-10.237c1.389-1.532 1.995-3.624 1.658-5.664-.832-5.009-.83-10.199 0-15.216.337-2.046-.269-4.127-1.658-5.67l-9.225-10.225 7.922-13.73 13.495 2.869c2.023.44 4.138-.08 5.739-1.406 3.961-3.252 8.385-5.813 13.152-7.602 1.943-.726 3.441-2.298 4.087-4.27l4.252-13.095h15.839l4.252 13.095c.646 1.972 2.144 3.544 4.087 4.27 4.767 1.789 9.197 4.35 13.158 7.602 1.595 1.326 3.715 1.846 5.739 1.406l13.489-2.869 7.922 13.73zm-12.947-100.439c-33.909 0-34.892 0-68.801 0v-103.434c0-.955.812-1.766 1.766-1.766h65.275c.949 0 1.76.812 1.76 1.766zm-132.648 76.964h-23.109l-15.404 62.291zm-37.153 0-18.388 74.409-18.394-74.409zm-35.421 62.292-15.393-62.292h-23.12zm-37.702-75.913h22.989l11.203-28.568h-14.352zm37.622 0h34.221l-11.209-28.568h-11.803zm37.65-28.567 11.203 28.568h23.001l-19.851-28.568zm85.23-105.629h-38.136c-.383 0-.72.337-.72.726v70.128h38.856zm96.049 70.853h38.851v-70.127c0-.389-.337-.726-.72-.726h-38.13v70.853zm173.253 77.302v88.664c0 3.767-3.052 6.819-6.813 6.819h-113.992c-3.772 0-6.813-3.052-6.813-6.819v-45.361h-33.729l9.34 10.374c2.418 2.686 2.824 6.585 1.017 9.717l-11.78 20.406c-1.812 3.132-5.396 4.721-8.934 3.967l-14.147-3.006c-3.515 2.578-7.288 4.773-11.277 6.522l-4.47 13.758c-1.115 3.43-4.287 5.739-7.899 5.739h-23.561c-3.612 0-6.79-2.309-7.905-5.733l-4.47-13.77c-3.978-1.755-7.751-3.938-11.266-6.516l-14.169 3.018c-3.515.754-7.111-.846-8.917-3.978l-11.786-20.406c-1.806-3.132-1.395-7.031 1.018-9.717l9.34-10.374h-49.277l-38.788 62.731-.012-.006c-2.665 4.316-8.901 4.312-11.563 0l-.011.006-62.858-101.663c-.966-1.563-4.978-7.763-5.47-9.105-.775-2.115-.523-4.467.766-6.299l29.294-42.2c1.281-1.835 3.372-2.921 5.596-2.921h76.93c2.223 0 4.316 1.086 5.596 2.921l29.294 42.2c1.519 2.157 1.62 5.282.2 7.471l-4.899 7.934h-.006l-15.65 25.304h41l-9.483-10.529c-2.412-2.675-2.824-6.585-1.018-9.717l11.786-20.406c1.806-3.121 5.384-4.721 8.917-3.967l14.169 3.007c3.515-2.578 7.288-4.762 11.266-6.51l4.47-13.764c1.115-3.435 4.293-5.739 7.905-5.739h4.967v-25.727h-86.875c-3.772 0-6.813-3.052-6.813-6.813v-76.941c0-7.911 6.431-14.353 14.341-14.353h38.136v-18.954c0-8.483 6.899-15.387 15.387-15.387h65.275c8.483 0 15.387 6.905 15.387 15.387v18.954h38.13c7.911 0 14.347 6.442 14.347 14.353v76.941c0 3.761-3.047 6.813-6.814 6.813h-86.881v25.727h4.973c3.612 0 6.796 2.304 7.899 5.75l4.47 13.752c3.978 1.749 7.751 3.932 11.266 6.51l14.169-3.007c3.532-.754 7.111.846 8.923 3.967l11.78 20.417c1.806 3.121 1.4 7.031-1.017 9.706l-9.483 10.529h33.872v-29.677c0-1.898.8-3.715 2.201-5.001l56.987-52.46c2.612-2.401 6.624-2.401 9.231 0l56.998 52.46c1.403 1.286 2.203 3.104 2.203 5.002zm-207.308-147.418c3.767 0 6.813-3.052 6.813-6.813v-8.254c0-3.761-3.047-6.813-6.813-6.813-3.761 0-6.813 3.052-6.813 6.813v8.254c-.001 3.761 3.052 6.813 6.813 6.813zm-27.945-21.88c-3.767 0-6.808 3.052-6.808 6.813v8.254c0 3.761 3.041 6.813 6.808 6.813 3.761 0 6.814-3.052 6.814-6.813v-8.254c-.001-3.761-3.053-6.813-6.814-6.813zm0 31.054c-3.767 0-6.808 3.052-6.808 6.813v8.26c0 3.761 3.041 6.813 6.808 6.813 3.761 0 6.814-3.052 6.814-6.813v-8.26c-.001-3.761-3.053-6.813-6.814-6.813zm-52.637 51.58c-3.761 0-6.813-3.052-6.813-6.813v-8.265c0-3.761 3.052-6.813 6.813-6.813s6.813 3.052 6.813 6.813v8.265c0 3.76-3.052 6.813-6.813 6.813zm0-29.694c-3.761 0-6.813-3.052-6.813-6.813v-8.26c0-3.761 3.052-6.813 6.813-6.813s6.813 3.052 6.813 6.813v8.26c0 3.761-3.052 6.813-6.813 6.813zm133.219-21.886c3.761 0 6.813 3.052 6.813 6.813v8.26c0 3.761-3.052 6.813-6.813 6.813s-6.813-3.052-6.813-6.813v-8.26c0-3.761 3.052-6.813 6.813-6.813zm95.461 276.71c-4.047-7.088-13.107-9.557-20.194-5.504l-82.503 47.162c-.741.561-2.574.96-3.607.96h-81.131c-4.012 0-7.265-3.252-7.265-7.265 0-4.018 3.252-7.265 7.265-7.265h78.37c9.121-9.374 2.372-25.059-10.603-25.059h-64.103c-1.097 0-2.189-.246-3.178-.72-37.719-18.296-66.27-16.078-92.563 7.208-1.326 1.183-3.047 1.829-4.818 1.829h-6.602v75.741c3.881-.514 29.099-4.053 30.82-3.927 36.294 2.751 70.173 7.164 107.384 4.744 23.624-1.538 32.46-2.121 53.472-14.13l93.752-53.592c7.049-4.036 9.531-13.121 5.504-20.182zm-304.558 1.841c0-2.532-2.144-4.67-4.676-4.67h-24.281c-2.532 0-4.67 2.138-4.67 4.67v93.78c0 2.578 2.086 4.681 4.67 4.681h24.281c2.532 0 4.676-2.143 4.676-4.681zm317.178-9.054c8.024 14.025 3.111 31.995-10.911 40.011l-93.752 53.598c-23.927 13.678-35.152 14.404-59.742 16.01-30.419 1.971-59.175-.418-88.47-2.984-6.613-.583-13.444-1.183-20.217-1.709l-31.592 4.184c-2.572 7.008-9.288 12.032-17.17 12.032h-24.281c-10.094 0-18.296-8.214-18.296-18.308v-93.78c0-10.083 8.202-18.296 18.296-18.296h24.281c8.345 0 15.387 5.619 17.576 13.267h4.624c15.804-13.307 33.197-20.411 51.751-21.103 16.33-.606 33.735 3.578 53.163 12.792h62.452c16.173 0 29.334 13.142 29.334 29.357l62.932-35.981c14.043-8.021 31.991-3.134 40.022 10.91zm-101.268-232.996v8.265c0 3.761-3.052 6.813-6.813 6.813s-6.813-3.052-6.813-6.813v-8.265c0-3.761 3.052-6.813 6.813-6.813s6.813 3.052 6.813 6.813z" fill-rule="evenodd"/></svg>